<?xml version="1.0" standalone="no"?>
<!DOCTYPE svg PUBLIC "-//W3C//DTD SVG 20010904//EN"
 "http://www.w3.org/TR/2001/REC-SVG-20010904/DTD/svg10.dtd">
<svg version="1.0" xmlns="http://www.w3.org/2000/svg"
 width="24.000000pt" height="24.000000pt" viewBox="0 0 24.000000 24.000000"
 preserveAspectRatio="xMidYMid meet">

<g transform="translate(0.000000,24.000000) scale(0.100000,-0.100000)"
fill="#ffffff" stroke="none">
<path d="M70 223 c-95 -49 -83 -183 20 -214 53 -16 107 10 134 65 17 36 18 43
5 79 -25 71 -96 102 -159 70z m116 -64 c7 -12 -63 -89 -81 -89 -6 0 -22 11
-35 25 -18 19 -21 28 -12 37 8 8 15 8 27 -2 14 -11 20 -10 43 13 28 29 47 34
58 16z"/>
</g>
</svg>
